/* XPM */
static char *a79fbc032edd4c6fe5974bb7c19d9cdaD80m0jM2o6IcxSTD[] = {
/* columns rows colors chars-per-pixel */
"64 64 132 2 ",
"   c None",
".  c #494846",
"X  c #504F4F",
"o  c #50504E",
"O  c #656462",
"+  c #6B6A67",
"@  c #6F6E6C",
"#  c #706F6D",
"$  c #72716E",
"%  c #767572",
"&  c #797673",
"*  c #7B7975",
"=  c #7E7C78",
"-  c #817E7A",
";  c #84827E",
":  c #8A8682",
">  c #8C8A85",
",  c #8F8D88",
"<  c #95918C",
"1  c #98948F",
"2  c #999590",
"3  c #9C9A94",
"4  c #A09D96",
"5  c #A49F9A",
"6  c #A6A29C",
"7  c #A9A69E",
"8  c #ADA9A2",
"9  c #B1ADA6",
"0  c #B6B2AA",
"q  c #BAB6AE",
"w  c #BDB9B1",
"e  c #C3BEB6",
"r  c #C3C0B7",
"t  c #C5C1B9",
"y  c #CAC4BC",
"u  c #CDC8BF",
"i  c #CEC9C0",
"p  c #D2CDC4",
"a  c #D4CFC8",
"s  c #D6D0C7",
"d  c #D6D2C8",
"f  c #DCD5CC",
"g  c #DED8CF",
"h  c #DED9D0",
"j  c #E0D9CF",
"k  c #E4DDD3",
"l  c #E7E0D6",
"z  c #E8E1D7",
"x  c #E7E1D8",
"c  c #ECE5DB",
"v  c #ECE5DC",
"b  c #EDE6DC",
"n  c #EDE7DD",
"m  c #EEE7DD",
"M  c #EBE4DA",
"N  c #EFE8DE",
"B  c #EEE8DF",
"V  c #EFE8DE",
"C  c #F0E9DF",
"Z  c #F1EAE0",
"A  c #F2EBE1",
"S  c #F3ECE2",
"D  c #F3EDE3",
"F  c #F3EEE3",
"G  c #F4EDE3",
"H  c #F5EEE4",
"J  c #F4EFE4",
"K  c #F4EFE5",
"L  c #F5EFE5",
"P  c #F6EEE5",
"I  c #F6EFE5",
"U  c #F5EFE6",
"Y  c #F6EFE6",
"T  c #F4EDE3",
"R  c #F7F0E5",
"E  c #F6F0E6",
"W  c #F7F0E6",
"Q  c #F7F1E6",
"!  c #F6F0E7",
"~  c #F7F0E7",
"^  c #F7F1E7",
"/  c #F7F2E7",
"(  c #F7F0E6",
")  c #F8F0E6",
"_  c #F8F1E6",
"`  c #F8F0E7",
"'  c #F8F1E7",
"]  c #F8F2E7",
"[  c #F8F1E7",
"{  c #F7F1E8",
"}  c #F7F2E9",
"|  c #F8F0E8",
" . c #F8F1E8",
".. c #F9F1E8",
"X. c #F8F2E8",
"o. c #F8F2E9",
"O. c #F9F2E9",
"+. c #F8F2EA",
"@. c #F9F3EA",
"#. c #F8F3EB",
"$. c #F8F4EB",
"%. c #F9F3EC",
"&. c #F9F4EC",
"*. c #F9F4ED",
"=. c #F8F5ED",
"-. c #F9F5ED",
";. c #F9F5EF",
":. c #F9F6EE",
">. c #FAF6EF",
",. c #FAF6F0",
"<. c #FBF7F2",
"1. c #FAF8F2",
"2. c #FBF8F2",
"3. c #FBF8F3",
"4. c #FCF9F6",
"5. c #FCFAF6",
"6. c #FDFAF6",
"7. c #FCFAF7",
"8. c #FDFBF8",
"9. c #FCFBF9",
"0. c #FDFBF9",
"q. c #FCFCF9",
"w. c #FDFCF9",
"e. c #FDFCFB",
"r. c #FEFDFB",
"t. c #FEFEFC",
"y. c #FEFEFD",
"u. c #FEFEFE",
"i. c #FFFEFE",
"p. c #FFFFFE",
"a. c #FEFFFF",
"s. c white",
/* pixels */
"                                                                                          # $ $                                 ",
"                                                                                      3 r s g d t 6                             ",
"                                                                                  ; p F J J Z M k k y :                         ",
"                                                                                > x @.1.6.1.' ' Z k k p >                       ",
"                                                                              ; M &.q.y.y.y.<.' ' N k k p +                     ",
"                                                                              h @.y.y.y.y.y.3.{ ' ' l k k 9                     ",
"                                                                            , @.q.y.y.y.y.y.&.@.W ' m k k p                     ",
"                                                                            p &.y.y.y.y.y.9.W { ' ' C k k f O                   ",
"                                                                            l 1.y.y.y.y.y.&.W ' ' ' Z k k t X                   ",
"                                                                            N &.y.y.y.q.$.W ' ' W W F k f : 6 t p e 5 %         ",
"                                                                            m @.<.6.<.{ W ' ' W W ' G k j k k k k k k f 8       ",
"                                                                            k ' ' ' ' W ' ' W W W ' J F F G G Z N M k k k q     ",
"                                                                            t ' ' W ' ' ' ' W ' ' ' W W ' ' ' W ' ' F k k k 3   ",
"                                                                            > ' ' ' ' ' W W ' ' ' W W ' ' ' ' ' ' ' ' m k k y   ",
"                                                                              h W ' ' ' ' W ' ' W W ' ' ' W W ' ' ' ' J l k k $ ",
"                                                                              t ' ' ' ' ' ' ' ' W ' ' ' W W ' ' W ' ' ' M k k > ",
"                                                                            + C @.W W ' ' ' W ' ' ' ' W W ' ' W W ' ' ' M k k 1 ",
"                                                                            d ' Z J ' ' ' ' W ' ' ' W W ' ' ' W W ' ' J k k k : ",
"                                                                          s W m F ' ' ' W ' ' ' W ' ' ' ' W W ' ' ' W c k k f $ ",
"                                                                        p W m F ' ' ' W W ' ' ' W W ' ' ' W ' ' ' W m k k k w   ",
"                                                                      p W M Z ' ' ' ' W ' ' ' ' ' ' ' ' W ' ' ' G M k k k f =   ",
"                                                                    d J M Z ' ' ' ' W ' ' ' W ' ' ' W ' ' J Z z k k k k f 1     ",
"                                                                  d J z N ' ' ' W ' ' ' ' W W ' ' ' W Z M k k k k k k f <       ",
"                                                                h J k N W ' ' ' W ' ' ' W W ' W Z M k k k k k k k k 0 $         ",
"                                                              p J k m W ' ' W W ' ' ' ' W ' C k k k k k k k g y 7 $             ",
"                                                          $ s J k m ' ' ' W ' ' ' ' W W G z k k d w 1 - &                       ",
"                                                        * p F k m W ' ' W W ' ' ' W W m k k s ,                                 ",
"                                                      = d F k m ' ' ' ' W ' ' ' ' J M k k w @                                   ",
"                                                    & d F l N ' ' ' W W ' ' ' W G z k k 0                                       ",
"                                                  % p G l m ' ' ' W W ' ' ' W Z l k k 9                                         ",
"                                                  d F k m ' ' ' W ' ' ' ' W Z k k k 7                                           ",
"                                                p J l m W ' ' ' W ' ' ' W Z k k k 1                                             ",
"                                              g J k m ' ' ' W ' ' ' ' ' Z k k g <                                               ",
"                                            d J l N W ' ' ' W ' ' ' W Z k k j -                                                 ",
"                                          d J l N ' ' ' W W ' ' ' W Z k k p -                                                   ",
"                                        p J M C ' ' ' ' W ' ' ' W Z k k i ;                                                     ",
"                                      p W M Z ' ' ' W W ' ' ' W Z k k u *                                                       ",
"                                    d ' m Z ' ' ' ' W ' ' ' W Z k k p ;                                                         ",
"            = 7 y a i 8 ;         d @.N Z W ' ' ' W ' ' ' W Z k k g *                                                           ",
"        * i ' @.%.{ ' ' ' k 4 3 k W Z G ' ' ' W W ' ' ' ' Z k k g -                                                             ",
"      > l @.6.y.y.q.@.' ' W W ' @.' J ' ' ' ' W ' ' W W G k k k ,                                                               ",
"    : M &.y.y.y.y.y.&.' ' ' ' ' W ' ' ' ' W W ' ' ' ' J z k k 1                                                                 ",
"    h @.y.y.y.y.y.y.&.W W ' ' ' W ' ' ' ' W ' ' ' W W M k k 6                                                                   ",
"  8 W 6.y.y.y.y.y.q.W W ' ' ' ' ' ' ' ' ' ' ' ' W W m k k 8                                                                     ",
"  s @.q.y.y.y.y.y.@.W ' ' W W ' ' ' ' ' ' ' ' W W Z k k 0                                                                       ",
"- l { q.y.y.y.q.&.' ' ' ' W ' ' ' ' ' ' ' ' W ' W l k w                                                                         ",
"1 k W &.9.9.<.' ' ' ' W W ' ' ' W ' ' ' W ' ' ' m k i                                                                           ",
"< k F ' ' ' ' W ' ' W W ' ' ' W W ' ' ' ' ' ' J k k ;                                                                           ",
"% k M W ' ' W ' ' ' W ' ' ' W W ' ' ' ' ' ' ' c k t                                                                             ",
"  u k c J ' ' ' W W ' ' ' ' W ' ' ' W ' ' ' ' k k 2                                                                             ",
"  1 k k k m F J ' ' ' ' W W ' ' W W W ' ' ' G k k =                                                                             ",
"    0 k k k k k l z M ' W ' ' ' W W ' ' W W m k k                                                                               ",
"      q k k k k k j k W ' ' ' W ' ' ' ' W W l k f                                                                               ",
"        4 p k k p 7 k ' ' ' ' ' ' ' W W W G k k t                                                                               ",
"          # * $ . e k ' ' W W ' ' W W ' ' m k k q                                                                               ",
"                o k k W W W ' ' ' W ' ' W k k k 7                                                                               ",
"                O k k J W ' ' ' ' ' ' ' Z k k k :                                                                               ",
"                $ k k Z ' ' ' ' ' ' ' J z k k s @                                                                               ",
"                  d k M W ' W ' ' ' ' m k k k 4                                                                                 ",
"                  7 k k M J ' ' ' W m k k k p                                                                                   ",
"                  & d k k k m N m z k k k f >                                                                                   ",
"                    1 j k k k k k k k k k 2                                                                                     ",
"                      : u k k k k k k y :                                                                                       ",
"                          - 6 0 q 7 ;                                                                                           "
};
