/* XPM */
static char *_5cfc350012946a7eeb6212856ee470d96kLTwLW23fZWhn9[] = {
/* columns rows colors chars-per-pixel */
"64 64 143 2 ",
"   c None",
".  c #0A071D",
"X  c #0C0A1F",
"o  c #0E0C21",
"O  c #100F22",
"+  c #141325",
"@  c #171528",
"#  c #1B1B2B",
"$  c #1F1F30",
"%  c #1F2130",
"&  c #222532",
"*  c #272A36",
"=  c #282B37",
"-  c #272B38",
";  c #2A2D3A",
":  c #2E313D",
">  c #30333E",
",  c #2F3340",
"<  c #333642",
"1  c #363945",
"2  c #383C47",
"3  c #3A3E49",
"4  c #3E414D",
"5  c #40444E",
"6  c #424651",
"7  c #464955",
"8  c #494C56",
"9  c #4B4E59",
"0  c #4E515C",
"q  c #51545E",
"w  c #56585E",
"e  c #535661",
"r  c #565963",
"t  c #595C65",
"y  c #5C5E69",
"u  c #5E616A",
"i  c #62646D",
"p  c #66686E",
"a  c #646671",
"s  c #666972",
"d  c #696C75",
"f  c #6C6E78",
"g  c #6C7077",
"h  c #6E7179",
"j  c #707277",
"k  c #707177",
"l  c #707178",
"z  c #707279",
"x  c #70737B",
"c  c #72737A",
"v  c #72737B",
"b  c #71747B",
"n  c #71757B",
"m  c #70727C",
"M  c #70737C",
"N  c #70737D",
"B  c #70747C",
"V  c #71747C",
"C  c #71747D",
"Z  c #72747D",
"A  c #72757D",
"S  c #72767D",
"D  c #73767D",
"F  c #72757E",
"G  c #72767E",
"H  c #73767E",
"J  c #73767F",
"K  c #74777F",
"L  c #72747C",
"P  c #75787F",
"I  c #78797D",
"U  c #757780",
"Y  c #757880",
"T  c #757881",
"R  c #767981",
"E  c #767981",
"W  c #787A80",
"Q  c #787A81",
"!  c #797A81",
"~  c #7A7B81",
"^  c #787B82",
"/  c #787A83",
"(  c #797C82",
")  c #797C83",
"_  c #7B7C82",
"`  c #7F7F83",
"'  c #787B84",
"]  c #797C84",
"[  c #7A7D85",
"{  c #7B7D84",
"}  c #7B7E86",
"|  c #7C7F84",
" . c #7C7F87",
".. c #7A7D84",
"X. c #7F8085",
"o. c #7C8087",
"O. c #7D8087",
"+. c #7F8187",
"@. c #7F8287",
"#. c #7E8087",
"$. c #7F8289",
"%. c #7F828B",
"&. c #7F8289",
"*. c #828287",
"=. c #808186",
"-. c #808288",
";. c #808388",
":. c #828389",
">. c #82848A",
",. c #83858A",
"<. c #83858B",
"1. c #82858C",
"2. c #83858C",
"3. c #83858C",
"4. c #87888D",
"5. c #87888F",
"6. c #86888E",
"7. c #888A8F",
"8. c #888A8F",
"9. c #868790",
"0. c #858890",
"q. c #868990",
"w. c #888A90",
"e. c #898B91",
"r. c #888A92",
"t. c #898C91",
"y. c #8A8C92",
"u. c #8B8C92",
"i. c #8D8E92",
"p. c #8B8C94",
"a. c #8B8C93",
"s. c #8F9095",
"d. c #8F9096",
"f. c #919296",
"g. c #909298",
"h. c #919398",
"j. c #909299",
"k. c #93959A",
"l. c #97989D",
"z. c #98999E",
"x. c #9B9CA1",
"c. c #A1A2A6",
"v. c #A6A7AC",
/* pixels */
"                                                                                                                                ",
"                                                                                                                                ",
"                                                                                                                                ",
"                                                                                                                                ",
"                                                                                                                                ",
"                                                                                                                                ",
"                                                                                                                                ",
"                                                                                                                                ",
"                                                                                                                                ",
"                                                                                                                                ",
"                                                                t q 5                                                           ",
"                                          i v t y ~ ~ w r i r u M 8 r i q q r p p i y                                           ",
"                                d d t t h { { t t D >.7.-.~ p.v h 8 a y f d O.s.7.f 4 q p                                       ",
"                          d i d g D 0.K d Y Y e e i n -.| v Y { s 7 i i ) h h h s 0 8 t M d v k                                 ",
"                      { y u v 1.' a D 1.D s h 9 6 e a v D d d d r 2 t h D d a y q 4 8 y i ~ Y h | O.v f O.                      ",
"                    v.v d t r u a s D D d a y 8 3 8 r u u y r e 0 < 9 y i u t 0 7 : 7 &.{ u i D | M d w d =.                    ",
"                  u.| g.w.O.0 7 q s t u t t e 7 2 5 8 q e e 0 0 8 2 7 e t r 0 7 5 * i Y v d a d u r 0 p v ) i.                  ",
"                O.1.w.D h ' D 3 6 t t q q q 9 7 : 2 4 7 8 8 8 8 8 1 4 8 9 8 6 6 4 2 s s i s d t 8 8 >.u.~ ) 4.`                 ",
"              >.D D w.g.&.n O.q 4 8 t 0 8 8 7 4 ; ; 2 3 4 6 7 8 7 4 < 7 3 3 3 4 3 8 t y y y r 8 4 g ~ D u.g.4.-.I               ",
"            4.&.r.| i h &.~ P d 3 6 8 8 6 6 3 ; & & & ; ; : 2 4 6 6 : 6 2 ; < < 2 8 0 0 0 0 8 6 8 4.1.p.>.h s 1.>.c             ",
"          s.{ d t d Y h D | P D 7 6 3 3 3 2 : & # + O O @ # & * > 2 5 3 > = * # 3 3 4 5 5 4 4 6 s w.0.| i i f u d { =.          ",
"          d t y r y h a d h n v q 2 2 - : ; # o # ; 2 < - $ @ + + o + @ o + @ + # < : 2 < ; 3 7 D p.0.v ~ D d i e s i 4.        ",
"        ,.t q t a e 6 t t r u i r > ; % # + + & < 2 6 t y t q 0 8 3 < 2 6 < * ; : & o o & = 2 3 a 1.1.1.v i 0 8 t r u d         ",
"        | D D i u i t 4 4 7 7 q 8 < # % ; 2 4 7 7 2 > e d d i u t r 7 0 4 ; 3 7 7 2 * X . # * 2 y D h s r 4 7 a a s v h P       ",
"        h { { D v Y { D 3 < 4 3 < @ - 0 s D h a a s 6 : i n d i t e 7 0 3 0 r 0 4 > * ; 2 < & ; r i r 8 2 8 D h v d s u s       ",
"      d a u t t u d | -.f 1 2 : O # 7 y d ~ 6.u.{ s f 9 2 s s u 8 4 i r e t t t i d D h a r 4 # # q 4 2 3 Y h i u d Y i i 0     ",
"      h s { u.0.h a s h Y r : & . & 3 6 8 r a ~ i.u.h s 6 7 i t 3 r r 9 i h &.1.&.Y h s t e 8 < @ > 2 = f D M -.s.0.Y i u q     ",
"      D h f h | g.w.M d h v 2 # 1 y d i 0 5 2 5 t K >.D a 4 r r 4 0 q s D | { Y D s y t t t r 8 : # : q Y O.i.4.d u y r u q     ",
"      s D f &.6.6.s.k.4.| O.< 0 d | 6.6.~ i 0 8 8 7 0 s h y q t 7 7 y i d a y 8 4 3 4 7 r y t q 4 # < U 4.p.0.6.>.D i q t 0 8   ",
"    d u v h D h D v { ' { ~ 2 6 t s ~ 6.s.k.f.=.s 8 > : 7 i 0 t 2 8 r q 4 : > < 3 6 6 3 2 7 8 7 6 & 2 i.6.D h s i s i t t 6 4   ",
"    { u D u d h h p r i i i < : 6 h 6.w.w.4.>.| P D n d w 5 8 8 < 8 q v ,.i.>.O.f q 1 > 1 : : < 2 * 9 { d i r r i i y q t 6 7   ",
"    Y f u y r d s D 6.&.d q 2 3 i D P D f s t r r i -.s.i.| 5 : 8 >.z.k.i.>.O.4.f.z.k.K p i y 4 * # 9 a h ~ f t a t 7 7 0 0 8   ",
"    Y a 0 h u t Y 1.M v 6.-.3 8 r u s a t q 0 y -.l.f.i.7.&.~ K k i 8 u -.l.z.k.s.i.i.f.f.i.4.O.K 9 9 1.w.g.i.Y 0 t 5 y 4 8 e   ",
"    f s t i h 1.i.Y h d d D h 6 0 t q q 0 u 4.z.k.f.i.u.-.-.K i.f.s.>.8 < 8 s 1.g.l.k.i.0.6.&.Y d p g.l.i.6.s.9.U 7 t 8 3 6 8   ",
"    t t t e D f h D d O.-.Y D d 4 4 0 u 4.k.g.i.i.i.w.~ { v | w.f.k.s.i.i 3 2 0 h M ) 6.1.O.Y d u 6.i.| d s Y s i y u 6 0 9 6   ",
"    t i f y y s t t Y { s h O.u.h 8 h 0.u.w.7.u.f.u.f v ~ i 6.7.s.k.k.-.1.4.h 7 0 M s i d f p u h Y >.k.i.h i a e r 0 6 0 t t   ",
"    a h f t 6 i i D &.h w.u.s.c.x.0.' O.-.-.6.f.w.i i | r n 4.w.i.f.f.7.s | f.&.t 0 D a r r u k.x.w.U >.u.6.{ u q y 1 7 0 r t   ",
"    y s i 8 4 6 d f d { P w.l.w.| ~ D h D ) 4.O.u q D r q O.4.0.7.w.w.4.Y 0 d &.U u 8 s t 8 U 6.1.Y k.p.&.{ d i p 4 2 6 7 0 0   ",
"    r t q 6 8 7 e h u D &.) ) v r 9 u e s n D i 0 t u 4 i O.6.6.>.>.&.O.Y r 9 r d a r 7 e r e q v ' t h d t u u r < 3 4 6 7 7   ",
"      0 6 0 y q 9 y d t t d d 0 d x.i.8 8 y q 0 8 t 2 8 g { &.| ) Y D h h u 4 8 0 t r 8 6 y ' -.h Y U 0 i r 0 r 3 7 6 3 3 4 4   ",
"      7 4 a a y u 0 u i t p q { x.x.k.O.r 8 8 8 8 6 < u d Y ~ P h g s i u i 8 4 r h h f q a f D h -.{ a 8 r r 4 7 0 0 6 3 3     ",
"        8 d a s s s 0 u h r K 1.6.) ) ~ w.{ t 7 6 < 7 r g Y P h d d i t 0 0 d { 1.6.h -.6.M 0 t u 8 0 r r t 4 7 0 e q 0 2 2     ",
"        e a s i s f d q r v i s y q i i D f f i d P O.D P D h d i i y 0 q K 0.h h { | u s d d t 8 e 7 9 t 4 9 t t r r q 4       ",
"        r y u t t a f s 0 8 i r 4 q 0 y d t Y k.z.x.&.w.>.K h t 0 q 0 i u.g.r.0.i i &.~ t 9 8 0 e y t t 3 7 t u t q q 8 5       ",
"          t r q 0 0 y i t 8 3 9 t 8 0 d u i { u.g.6.>.u.~ -.1.Y q 5 8 D w.g.k.g.0.s i | Y s r 0 6 8 9 2 6 0 y u q 7 7 6         ",
"            q 0 8 6 7 q r q 6 : 4 r u q q t Y D D K 0.6.>.) D K h s r y K p.0.6.1.1.a r s u t q 0 6 , 3 7 q t r 8 6 6 5         ",
"            e 0 0 8 6 6 0 9 4 3 2 < 4 r y t r r d v Y M s i s d f v 8 i D | D d u t i r t u t 9 3 : < 2 6 0 e 0 7 6 6           ",
"              q 0 q 9 8 q 8 6 6 6 4 6 2 3 q y i i t u q q 8 q q s p 8 d h i i t r t y t 8 6 8 9 < 3 5 4 3 7 8 7 6 6             ",
"                q q q q r 0 7 6 0 8 7 7 6 3 1 3 4 7 9 q r t q 7 u y y 7 0 r y y q 7 4 7 8 t i y 6 4 3 6 3 4 6 6 6               ",
"                  q q q q 8 6 8 q 0 7 6 7 8 0 0 0 8 4 < 3 3 4 q t y t t 0 6 4 3 4 7 7 8 0 t u t 8 6 3 6 4 2 4 5                 ",
"                    q 0 0 7 6 8 e e 7 4 6 8 e t t e 7 4 0 6 3 3 3 3 1 < 3 7 6 4 4 5 6 6 8 0 0 8 6 6 6 4 3 2 3                   ",
"                        0 7 7 8 0 q 7 4 5 8 t u u t 8 6 0 8 8 0 7 6 4 4 7 7 6 4 5 6 4 4 5 7 8 7 4 4 5 3 3                       ",
"                          8 7 7 7 8 7 6 6 0 t y t r 0 7 e 0 e e 0 7 4 6 8 7 4 4 6 8 6 3 4 7 8 6 2 2 2                           ",
"                              7 7 6 6 5 7 q t r q 0 0 7 0 7 0 q 0 7 6 6 7 7 4 3 6 7 5 3 3 4 6 3 1                               ",
"                                  8 5 3 6 0 r q 8 7 7 6 7 4 6 7 7 6 6 6 8 6 2 1 3 4 3 2 2 2 3                                   ",
"                                      5 6 9 0 8 7 5 4 3 3 3 3 4 5 5 6 6 8 4 < 2 2 2 2 2                                         ",
"                                              8 6 4 3 3 2 2 3 3 4 6 8 7 8 4 3 2                                                 ",
"                                                                                                                                ",
"                                                                                                                                ",
"                                                                                                                                ",
"                                                                                                                                ",
"                                                                                                                                ",
"                                                                                                                                ",
"                                                                                                                                "
};
