/* XPM */
static char *_0dadcdc10a9486fd67bdb5295b93932V78h3zuL2SCYbWnl[] = {
/* columns rows colors chars-per-pixel */
"64 64 256 2 ",
"   c black",
".  c #424D4B",
"X  c #CFD8D3",
"o  c #AFBAB7",
"O  c #7F8884",
"+  c #323837",
"@  c #A3AEAB",
"#  c #828985",
"$  c #DEDCD0",
"%  c None",
"&  c #F5F5F0",
"*  c #D7D8D0",
"=  c #CBD0C8",
"-  c #CBD1CA",
";  c #9EADAB",
":  c #D0D5CD",
">  c #D1D4CC",
",  c #CFD4CF",
"<  c #CED6CF",
"1  c #ACBBB9",
"2  c #B2C2C0",
"3  c #DFE3DB",
"4  c #E0DCD5",
"5  c #C3CBC7",
"6  c #B8C4BF",
"7  c #C4CDCA",
"8  c #E8ECE7",
"9  c #B4C4C1",
"0  c #DDDCD2",
"q  c #D6D9D1",
"w  c #88908D",
"e  c #CFD5CF",
"r  c #D0D6D0",
"t  c #DBDFD8",
"y  c #A6B3AF",
"u  c #96A4A2",
"i  c #DFE4DE",
"p  c #E0E7E2",
"a  c #DBDDD3",
"s  c #DADCD3",
"d  c #D7DAD2",
"f  c #E4E5DE",
"g  c #D0D6D0",
"h  c #AAB7B6",
"j  c #CFD8D4",
"k  c #C2CDC9",
"l  c #EAECE6",
"z  c #707D7B",
"x  c #CFD3CA",
"c  c #CFD4CD",
"v  c #E4E9E2",
"b  c #D4DDD8",
"n  c #DBDCD5",
"m  c #F0F1EA",
"M  c #E3E5DD",
"N  c #818F8C",
"B  c #9EAAA7",
"V  c #414B4A",
"C  c #839290",
"Z  c #D8D8CE",
"A  c #D6D6CC",
"S  c #B8C2BB",
"D  c #D1D8D1",
"F  c #ACB7B2",
"G  c #E5EDE7",
"H  c #BECDCB",
"J  c #CEDCDA",
"K  c #DADACF",
"L  c #CED3CC",
"P  c #C0CFC9",
"I  c #DBDED5",
"U  c #DFE2DB",
"Y  c #DADAD2",
"T  c #CDD3CB",
"R  c #E2E2DA",
"E  c #DEDED9",
"W  c #D4DED7",
"Q  c #768582",
"!  c #E4E9E3",
"~  c #F1F6F0",
"^  c #798887",
"/  c #B7C7C8",
"(  c #9C827F",
")  c #A28684",
"_  c #EAF0EA",
"`  c #DADCD6",
"'  c #EBF0E9",
"]  c #97B7B1",
"[  c #ABC3BC",
"{  c #EEF3EE",
"}  c #9F7C78",
"|  c #EEF3EC",
" . c #DAD8CB",
".. c #E1DDD7",
"X. c #DFDCD5",
"o. c #F3EFE9",
"O. c #F2EEE7",
"+. c #D6D3C8",
"@. c #EBE8E2",
"#. c #E4E1DB",
"$. c #F0ECE6",
"%. c #ECE9E2",
"&. c #E2DED7",
"*. c #DFDCD0",
"=. c #F3EEE8",
"-. c #E8E5DF",
";. c #EEEBE4",
":. c #DEDCD4",
">. c #E6E4DD",
",. c #E4E3DB",
"<. c #EAE6E0",
"1. c #E1DED1",
"2. c #EDE8E1",
"3. c #E8E6DE",
"4. c #E0DCD2",
"5. c #F1EEE9",
"6. c #D9D6CA",
"7. c #DDD9D2",
"8. c #EAE7E2",
"9. c #EBE7E0",
"0. c #DFDAD4",
"q. c #F2F0E9",
"w. c #EEEAE3",
"e. c #F0EFE8",
"r. c #EFEAE5",
"t. c #ECEAE2",
"y. c #E4E0D9",
"u. c #E8E4DD",
"i. c #E3DFD6",
"p. c #DCD8CD",
"a. c #DEDAD1",
"s. c #DCD8D0",
"d. c #F2EDE6",
"f. c #EAE5DE",
"g. c #DBD7CF",
"h. c #D5D2C6",
"j. c #F5F0E9",
"k. c #DFDDD1",
"l. c #DFDCD3",
"z. c #F1EBE5",
"x. c #F2F0EB",
"c. c #E6E2DC",
"v. c #F3F1EB",
"b. c #DEDED1",
"n. c #D8D5C9",
"m. c #DED9D3",
"M. c #EFEBE5",
"N. c #ECEAE2",
"B. c #DBD7CC",
"V. c #E2E0D9",
"C. c #E8E3DD",
"Z. c #D2CEC3",
"A. c #E8E6DF",
"S. c #D4D1C5",
"D. c #DCD9D2",
"F. c #DEDBD0",
"G. c #DAD9D1",
"H. c #D7D3CA",
"J. c #DAD7CD",
"K. c #E3DFD9",
"L. c #F2EEE7",
"P. c #E5E2DC",
"I. c #E1DED4",
"U. c #F1EEE7",
"Y. c #D8D5CC",
"T. c #DEDBD4",
"R. c #F3F3ED",
"E. c #E4DFD9",
"W. c #E8E8E0",
"Q. c #D6D4CC",
"!. c #DDDBD3",
"~. c #E9E7DF",
"^. c #EBE9E2",
"/. c #D0CEC2",
"(. c #DEB5B3",
"). c #C4BEB3",
"_. c #EDEBE3",
"`. c #E2E1DA",
"'. c #C3BDB2",
"]. c #F7F3ED",
"[. c #CFCBC2",
"{. c #F6F2EB",
"}. c #F5F2EC",
"|. c #EEEEE6",
" X c #DFDFD5",
".X c #C2BCB1",
"XX c #B8B2A5",
"oX c #E1DED7",
"OX c #C9C2B7",
"+X c #E7E2DA",
"@X c #BAB6AD",
"#X c #F7F6F1",
"$X c #EEECE3",
"%X c #ECEAE4",
"&X c #BFB9AD",
"*X c #E4E1D8",
"=X c #F2F1E9",
"-X c #CAC5BA",
";X c #B9B3A6",
":X c #372F27",
">X c #F8F8F4",
",X c #E5E5DC",
"<X c #463F38",
"1X c #D8D5CE",
"2X c #CBC7BC",
"3X c #D4CFC4",
"4X c #D4D1C8",
"5X c #6E6760",
"6X c #4F4841",
"7X c #4A433D",
"8X c #665E57",
"9X c #CEC8BD",
"0X c #C5BFB4",
"qX c #EAE9E1",
"wX c #C7C1B6",
"eX c #F9F4EE",
"rX c #CFCAC0",
"tX c #433A33",
"yX c #DCB3AF",
"uX c #B1ACA0",
"iX c #BCB5AA",
"pX c #77726B",
"aX c #938D87",
"sX c #BEBAB0",
"dX c #D4D2C7",
"fX c #3D372F",
"gX c #9A948D",
"hX c #56514A",
"jX c #584943",
"kX c #D8D1C9",
"lX c #C1BDB5",
"zX c #B4AFA4",
"xX c #A39E97",
"cX c #C5C2BA",
"vX c #CCC7C1",
"bX c #38322A",
"nX c #ACA8A1",
"mX c #C6C4BD",
"MX c #A9A49A",
"NX c #7F7A73",
"BX c #CCA8A4",
"VX c #DABDB9",
"CX c #D7AEAB",
"ZX c #BAB3A8",
"AX c #AEA79B",
"SX c #8C857E",
"DX c #5B534D",
"FX c #C2C0BA",
"GX c #B2B0AA",
"HX c #8A7872",
"JX c #85827B",
"KX c #C5A39F",
"LX c #413832",
"PX c #725B56",
"IX c #B1A09B",
"UX c #BBA09C",
/* pixels */
"                                            V . . . z u               u ^ . . . . #                                             ",
"                                          . .         N 2 @       @ 2 ;         O . +                                           ",
"                                        V O ; 1 9 / o   o H       H o   o / 9 1 ; @ + +                                         ",
"                                      O C 2 9 u ; B 2 k 6 X j   X < 7 J D 9 u ; B h C .                                         ",
"                                    V z @   @ z Q C y e 8 , J   J < G i g F C z w # # N . #                                     ",
"                              # # O @ < v l l i p p i m R.{ p j p 8 & & | i p p i l ' b o w # # O                               ",
"                          7 2 2 W 8 8 & R.R.#X>X>X#X>X& e.R.~ G ~ & R.e.& >X>X>X>X#XR.R.m l 8 g h h o                           ",
"                        1 2 j G U.U.$.5.v.& & x.e.e.x.& & U.}.R.R.R.e.& #Xx.e.e.x.& & v.q.5.5.5.8 j h ;                         ",
"                      1 9 b ! qX9.z.d.$X|.5.R.R.x.x.x.v.& O.5.5.q.5.q.& v.5.x.x.R.R.q.|.U.O.M.<.^._ b 1 u                       ",
"                  + ^ y 5 t E D.u.d.d.U.}.o.$.U.U.5.5.5.O.O.O.U.O.U.O.5.O.U.5.U.U.$.v.v.U.d.$.C.D.f e 5 y N +                   ",
"                + O F 9 H d !.qX$.U.U.v.U.U.O.O.O.O.O.O.O.O.=.=.=.O.O.O.O.O.O.d.=.O.O.$.}.$.d.$.u.7.q 5 9 y O +                 ",
"              # # 6 5 t t D.s...$.M.v.M.5.$.%.%.%X$.=.d.d.=.d.=.=.O.O.=.d.d.$.w.w.$.=.U.M.v.%XM.4 7.G.i q - o + #               ",
"                @ g ` D.X.m.m.<.%Xv.U.$.@.w.$.$.U.U.O.d.d.=.d.d.=.=.=.d.d.d.d.d.$.M.%.$.O.$.5.N.c.7.7.oXG.E - O                 ",
"              o * R !.g...m...w.5.5.%X<.d.d.$.M.M.U.O.d.=.=.d.d.O.O.O.d.d.d.O.$.$.d.O.O._.;.q.%.w.m.m.oXs.K.R - @               ",
"            + F P...>.G...m.u.%.$.%X-.$.$.9.<.9.A.c.-.%.w.d.w.+X<.9.U.w.9.C.c.A.<.9.w.$.$.<.U.$.2...m.oXG.#.A.R B +             ",
"          O + * X.8.<.G...m.9.r.r.+XM.M.f.@.%.@._.<.oXK.I.u.I.H.J.m.>.K.4 &.@.%.%._.%.A.$.%.<.;.%.f.7.4 D.%.oX>.5 V #           ",
"          + ; Y *XM.c.D.m.&.2.w.<.9.$.9.$.w.-.>.<.~.i.h.+.n.+.dXh.+.+.H.+.>.<.9.>.<.$.M.9.U.>.M.%.2.m.m.7.<.;.T.t w +           ",
"          u d 1X%.;.T.m.7.C.<.w.c.$.w.N.K.K...D.oXu.u.J.S.h.+.dXh.dXh.S.l.-.<.4 m.oXK.u.;.;.9.8.@.9.&.7.T.#.$.<.G.: w           ",
"        N : G.D.$X>.7.4 7.-.<.2.u.$.%.&.<.#.4X-X.XH.E.*X3XS.+.h.h.h.3XdX*X>.rX.X2XJ.>.C.c.%.M.P.@.9.c.7...!.r.$.!.s S O         ",
"      # y s g.m.r.0.0.m.m.<.<.u.w.r.c.>.V.Z.gXhX6XgX&.y.Z.3X3Xh.h.S.[.H.V.a.5X7X8XuXdXc.#.9.w.c.;.y.9.7.E.m.c.M.&.1Xd u         ",
"      w L !.1X0.9.7.K.7.E.<.9.c.$.9.K.>./.xXtX8X:XtXlXE.[.0X3Xh.H.3XwX4XK.aXbX5XhXhX@XJ.&.f.9.<.@.~.9.m.4 &.0.M.P.Y.G.e @       ",
"      2 G.I.Y.&.c.s.c.7.<.<.@.>.%X@.K.Y.lXpXbX:X:X:XSXg.lXrX3X*.I./.[.lXQ.5X:XfX:XfXgXOX&.c.9.%.-.%.2.E.m.c.7.9.P.H.a.s 9       ",
"      g g.I.Y.#...7.C.7.;.3.%Xu.@.>.*X[.cXaXfX:X:XfXaXvXa.&.y.2.2.B.4.H.mXpXbX:X:X<XzX2XH.i.+Xw.>.M.@.<.D.-.s.*X*XH.l.g.-       ",
"      q G.a.Y.f.7.&.c...r.2.@.8.>.-.% Z./.2XpX7X6XJXFXX.].{.{.d.j.}.}.v.G.GX5X<X7XaX[.rX/.a.f.9.>.M.9.$.m.<.a.l.>.+.g.J.*       ",
"      q G.s.J.+X7.u.E.c.2.M.>.8.c.>.+.Z./.n.g.FX4X~._.@.$.U.=.<.d.O.d.%.%.M.c.cXmXD.H././.6.+X9.u.$.9.d...C.y.% u.h.H.J.*       ",
"      : Y.g.a.i.7.;.4.9.<.$.>.u.A.>.Z.3X7.~.~.9.<.C.+X+Xy.y.<.0.2.u.K.C.u.c.c.9.%.9.c.D.Z.h.u.~.>.2.w.$.c.&.~.7.c.n.h.g.K       ",
"      e J.J.i.l.&.M.7.M.A.$.>.c.A.A.H.4 W.W.>.f.z.o.d.u...xXpX5XpXSX[.*X<.U.U.2.c.2.<.@.% dX%.9.i.~.O.M.<.T.M.T.&.a.dXG.D       ",
"      c 7.Y.*Xs.c.%.7.$.9.;.y.~.<.A.*X~.9.#.z.}.eX}.%.K.gXDXpXDX6X6XDX1Xu.U.].{.d.f.<.~.9.k.N.<.&.u.o.w.w.D.N.y.!.4 +.G.X       ",
"      6 D.1X&.G.<.u.X.$.M.%.c.2.@.<.N.~.+Xo.].].w.c.c.Y.5XtX<X7X<XfX7XnXT.P.<.j.].j.w.3.<.M.%.<.c.+X=.2.z.m.~.>.D.4 +.s =       ",
"      O d Q.X.!.<.c.4 $XU.c.-.%.%.;.@.+Xj.].j.C.c.y.K.7.JXtXLX<X<XbX6XmXK.K.c.c.$.].{.;.u.9.U.qX-.i.d.w.r...C.-.X.a.+.Z         ",
"        e Q.G.4 -.#.&.N.e.y.<.$.$.<.c.j.{.o.c.y.K.y.9.y.vX6X7X<X7X<XNX#.#.%...#.y.w.{.{.2.~.%.N._.c.w.z.w.&.y.c.K.Y.Q.e         ",
"        , > 1XoXP.K.K.N.%X8.;.;.<.3.$.v.j.C.+X&.E.9.a.4XH.MX8X<X6XNXFX[.H.*X@...y.c.$.j.}.f.2.;.@.-.%XM.r.K.K.E.y.H.Q.X         ",
"        # L > oX`.V.K._.@.W.<.N.@.3.v.q.8.c.4 #.2.B.-X.XOXvX@XaXGXFXmXFXsXrX+X-.oX#.C.=.q.j.>.u.;.&.$.-.;.&.&.K.K.4XZ @         ",
"          , > G.`.oX4 ~.;.V.qXu.-.O.U.U.c.&.E.@.4.rXiXZX.X@XnXSXxXGXsXsXzX'.Z.%.P.X.#.<.q.v.3.qX_.4 ^.c.%X4 K.y.!.4Xr           ",
"            x > oX`.!.c.N.!._.f.<.U.O.8.#.&.P.A.3XuXMXuXnXNXjXLX7X8XgXuXuXMXwXa.A.K.oXP.U.|.e.3.,X,.>.P.%.!.#.V.> -             ",
"            # - 1XV.J.V.3.X.~.qX_.|.e.>.K.y.y.l.&XNX6X8XDXPXjXtXjXPXjXjX8X8XAX/.<.&.&.&.%.|.|.3.,XqXP.&.u.g.`.G.- O             ",
"              # 5 Y H.D.!.V.>.,Xe.|.%X`.#.c...3XXXAX8XtXBXyXBX} KXyXBXtXDXMXuX.X&.oXK.V.c.e.|.A.A.W.I.l.% J.a c                 ",
"                  A /.Z.n.`.`.A.e.e.A.#.K.>.4 OX;XiXAXHXyXyXyXBX(.(.(.5XuX.XzX@XJ.&.oX-.&.U.U.qX~.,.*XJ.S.> X                   ",
"                  g [./.S.#. X,X|.e.`.`.V.u.H.wX;X;XXXiX(.(.yXCX(.(.(.;X;XXXXXiXrXI.4 3.4 |.e.;.,. Xi.S./.> k                   ",
"                o T /.Z.S.c.l.3.qXe.K.,XK.P.h.).XX;X;XOXVX(.yXCX(.(.VX.X;XXXXXiXwXa.T.9.T._.e.^.`. X,.n.Z.Q.:                   ",
"                z T J.Z.Z.>.l.u.W.e.V.3.V.oXZ.0X;XXXiXwXVX(.CXyX(.KXaX9XZXXXXXiX.XJ.l.<.7._.e.>.>. X>.h.Z.$ P @                 ",
"              O . : a.Z./.,. X,X3.e.V.,XP.g.rX0XXXzX&X@XrXIX( ) HX5X[.).ZX;XXX.X&Xn.4.A.G.|.e.&.A.oXK.S.dX XS .                 ",
"              # O : G.3X3X!. X,X Xe.,. XP.J.Z..XiX;X.X@XrX1X@XxXnXg.7.iX&X&XXX&XsX6.*.-.g.e.|.oX#.&.T.S.+. Xk +                 ",
"                o a g.S.Z.Y.4 a. XW._.g.y.g.S.sX.X&X.X.X.Xm.0.kXg.E.9X&X.X.X&X&XOXn.l.&.X.o.V.y.J.&.H.S.+.a.: w                 ",
"                1 !.F.S.S.S.% S.i.!.q.:.s.J./.0X.X0X'.'.'.0X-XvX-X9X'.'.'.OX.X&X-Xn.F.1Xu.;.D.i.4Xl.S.3X% *.0 Q O               ",
"              + y l.p.p.dXS.g.S.Y.F.>.w.6.n.[.2X9X-XOX'.).).).-X'.'.).'.).9XOXwX2Xn.4XX.U.&.4 H.dXJ.S.6.p.1.b.B O               ",
"              + S k.$ $ h.6.% +.+.% 6.n.n.h.4XH.Y.Z.2X-XwXOXwX9XwX).0XOX).3X9XJ.4XH.Y.s.s.g.m.3X6.n.h.n.F.4.b.X                 ",
"              O : k.1.p.h.*.k.$ 6.+.p.n.n.J.T.T.0.kX[.4X-XZ.rXS.9X-X-X-X9XkX4Xa.7.0.J.Y.Y.a.+.6.F.k.n.H.4.k.G.b                 ",
"              = 0 p.$ B.n.*.*.k.4.6.B.n.+.g.T.!.l.a.H.Y.Z.p.+.H.+.3XS.S.n.6.g.T.0.T.s.Y.Y.g.Y.k.k.k.p.+.k.p.J.3                 ",
"              - k.6.p.% B.k.k.k.4.% g.n.+.g.T.!.l.a.a.g.g.a.g.Y.J.Y.a.a.a.a.!.T.X.X.7.Y.J.1X7.$ k.$ *.B.*.6.n.3                 ",
"            @ P $ n.6.4.*.k.k.a.s.0.0.0.g.J.T.l.T.T.0.0.&.m.D.g.s.T.#.P.T.T.T.X.X.T.s.g.!.0.m.a.*.*.k.*.*.n.H.*                 ",
"              6 s dX6.*.*.k.% s.0.0.0.T.T.!.T.T.#.<.%.V.|.w.s.7.4 oX=XM.V.%.<.V.T.T.T.!.T.m.0.7.% *.*.*.*.n.+.*                 ",
"              O a S.B.*.k.% p.a.*.a.m.T.T.T.&.N.U.$._.9.%.;.T.4 K.oX|.%XA._.5.$.@.4 T.T.:.m.m.a.% J.*.*.*.B.dXD                 ",
"                * +.$ k.F.% k.k.k.a.l.l.X.#.M.U._.c.<.@.9.#.X.K.A.oX-.8.8.-.>.;.U.;.oXT.X.l.s.*.k.*.B.k.*.F.+.A                 ",
"                3 *.*.$ J.k.$ $ k.a.a.l.#._.U.;.oXV.%XP.;.4 X.u.;.oX&.M.P.%.y.oX;.U.%XV.:.l.F.$ k.*.F.% *.*.$ ,                 ",
"                = 0 *.k.$ $ $ k.k.l.l.i.;.;.$.*X4 -.A.A.A.X.X._.O...4 A.<.-.A.oX*X$.w.N.&.k.*.$ *.*.4.*.$ $ % O                 ",
"                  K $ $ $ *.$ $ k.$ I.u.q.;.;.l.oX;.P.<.u.0.0.U.o.E...>.9.P.;.i.I.$X_.e.>.I.*.$ k.$ k.$ $ $ d                   ",
"                  = 0 $ $ q * $ $ $ i.N.U.;.u.i.I.U.P.%.#.l.4 o.o.c.4 #.%.P.U.&.i.3._.|.N.i.*.n a *.*.% F.% r                   ",
"                    x - < = c q Z $ I.o.;.^.-.a t O.c.<.#.4.*Xo.o.9.4 #.@.>.U.n I ,XN.$XO.&.*.A x $ 0 r * 5                     ",
"                    #       # 6 x % I =XqXqXU < = m >.u.`.n M =Xj.! > `.3.A.m = < U qXqX=X!.0 7 # < 7   O @                     ",
"                                # , < W.f t X     3 f M n @ r U.=X[ ] W M f 3     j f W.M X ,                                   ",
"                                    O v X X 7       r , r   # 8 l # # h X X       = c v 3                                       ",
"                                                    7 k X     v 3     1 k =                                                     ",
"                                                      6 @     6 7     @ ;                                                       "
};
