/* XPM */
static char *e1d93896ef6548048c2a7001d9e625fdsJDgDTivWnGnbuqS[] = {
/* columns rows colors chars-per-pixel */
"64 64 243 2 ",
"   c #3E322D",
".  c #462E27",
"X  c #47322C",
"o  c #57342A",
"O  c #4C3A34",
"+  c #4C3E39",
"@  c #463936",
"#  c #543B34",
"$  c #5C3C34",
"%  c #533E39",
"&  c #5B2D21",
"*  c #643E32",
"=  c #67392A",
"-  c #4D413D",
";  c #47413E",
":  c #55423C",
">  c #5B433C",
",  c #5B4036",
"<  c #63443B",
"1  c #6B443B",
"2  c #6C493D",
"3  c #684437",
"4  c #744B3D",
"5  c #774737",
"6  c #72442F",
"7  c #4C4442",
"8  c #4F4A49",
"9  c #534642",
"0  c #5B4640",
"q  c #554A46",
"w  c #5B4A44",
"e  c #544D4C",
"r  c #5B4E4B",
"t  c #5C514D",
"y  c #55514F",
"u  c #565352",
"i  c #5B5554",
"p  c #5D5B5B",
"a  c #5D5856",
"s  c #524F50",
"d  c #634B44",
"f  c #694C43",
"g  c #614942",
"h  c #734D42",
"j  c #7B4E42",
"k  c #64524C",
"l  c #6C534B",
"z  c #7C5345",
"x  c #7B554A",
"c  c #77554A",
"v  c #645651",
"b  c #625956",
"n  c #625D5C",
"m  c #6B5B55",
"M  c #765B53",
"N  c #68615E",
"B  c #78625B",
"V  c #5E5F60",
"C  c #5F6061",
"Z  c #646363",
"A  c #6A6664",
"S  c #6C6B6B",
"D  c #676868",
"F  c #736D6B",
"G  c #6E7172",
"H  c #747474",
"J  c #77797A",
"K  c #7C7C7C",
"L  c #797877",
"P  c #726F6F",
"I  c #8C4B36",
"U  c #854B3C",
"Y  c #8B4D3C",
"T  c #854835",
"R  c #964E3A",
"E  c #8D513E",
"W  c #84533C",
"Q  c #93533D",
"!  c #9B553D",
"~  c #9C5B3D",
"^  c #98563A",
"/  c #A75C3B",
"(  c #A8623E",
")  c #B7653D",
"_  c #844E41",
"`  c #8B4F41",
"'  c #855344",
"]  c #8C5444",
"[  c #8D5846",
"{  c #85564A",
"}  c #8B5649",
"|  c #84594D",
" . c #8C5A4C",
".. c #815946",
"X. c #935544",
"o. c #995543",
"O. c #945A45",
"+. c #9B5C44",
"@. c #925749",
"#. c #935C4C",
"$. c #9A5D4B",
"%. c #8D5D51",
"&. c #855D52",
"*. c #925E51",
"=. c #904F40",
"-. c #A25C43",
";. c #A55944",
":. c #8E604C",
">. c #95614D",
",. c #9C634C",
"<. c #9D6348",
"1. c #8E6154",
"2. c #8C6359",
"3. c #946254",
"4. c #9A6554",
"5. c #9C6955",
"6. c #956559",
"7. c #99665A",
"8. c #96695B",
"9. c #9C6A5C",
"0. c #976857",
"q. c #9D705F",
"w. c #A46244",
"e. c #AA6543",
"r. c #A3654B",
"t. c #A4694C",
"y. c #AA6A4C",
"u. c #A16654",
"i. c #A46B54",
"p. c #A26C5C",
"a. c #AA6E5C",
"s. c #A66957",
"d. c #AB7254",
"f. c #A6725D",
"g. c #AB735B",
"h. c #A67055",
"j. c #B3795D",
"k. c #B57759",
"l. c #B06A48",
"z. c #9D6D61",
"x. c #956E62",
"c. c #9E7164",
"v. c #9C766A",
"b. c #847C7A",
"n. c #816D67",
"m. c #A26E61",
"M. c #AA6F60",
"N. c #A47263",
"B. c #AB7463",
"V. c #AC7A65",
"C. c #A3766A",
"Z. c #A3796C",
"A. c #AC7A6B",
"S. c #A87768",
"D. c #B47662",
"F. c #B37A65",
"G. c #B27C6A",
"H. c #BA7A65",
"J. c #A77E73",
"K. c #C17E5A",
"L. c #84817F",
"P. c #9F8479",
"I. c #B7826A",
"U. c #AD8374",
"Y. c #AA847A",
"T. c #AA877C",
"R. c #B38475",
"E. c #B4897B",
"W. c #B78878",
"Q. c #AD816D",
"!. c #C2825B",
"~. c #C38D70",
"^. c #7F7F80",
"/. c #7F8182",
"(. c #838383",
"). c #86898A",
"_. c #8B8C8C",
"`. c #888786",
"'. c #928E8C",
"]. c #9D8E88",
"[. c #8F9091",
"{. c #939494",
"}. c #9A9594",
"|. c #9C9996",
" X c #96999A",
".X c #9C9C9B",
"XX c #959798",
"oX c #98928F",
"OX c #A88C84",
"+X c #B38D82",
"@X c #B98E82",
"#X c #AB958D",
"$X c #A8938B",
"%X c #B5958B",
"&X c #BA958A",
"*X c #BB9A8E",
"=X c #B79588",
"-X c #A39995",
";X c #A29D9B",
":X c #A99A94",
">X c #B49C94",
",X c #BA9D94",
"<X c #B29E98",
"1X c #A4A09E",
"2X c #AAA19D",
"3X c #B4A19C",
"4X c #BBA49C",
"5X c #B9A398",
"6X c #9D9FA0",
"7X c #9FA1A1",
"8X c #A4A4A3",
"9X c #ABA5A3",
"0X c #ACA8A6",
"qX c #ACAAA9",
"wX c #A6A7A8",
"eX c #B2A5A2",
"rX c #B3A9A5",
"tX c #BBAAA4",
"yX c #B3ADAA",
"uX c #BBABA6",
"iX c #BBB1AD",
"pX c #B6B1AF",
"aX c #B5B3B2",
"sX c #BAB5B2",
"dX c #BDBCBA",
"fX c #AEB0B0",
"gX c #C19E93",
"hX c #C09985",
"jX c #C1A79D",
"kX c #C6A797",
"lX c #CEB09D",
"zX c #C4ACA3",
"xX c #C4ACA5",
"cX c #CBB5AC",
"vX c #C9B3A9",
"bX c #D1B5AA",
"nX c #C2B6B2",
"mX c #C5B9B4",
"MX c #C7BCB8",
"NX c #D5BEB7",
"BX c #C9C1BC",
"VX c #D5C4BD",
"CX c #D2CCC8",
/* pixels */
"L )./.(.(._./.[.7X_.(.(.'.'./._.{.L.)..X(._.}.0X}.;X7X}..X.X0X;X.X{.|.|._.(._._.qX}.(.|.0X0XyXBXmX2XeXuX:X}._.8XfX.X8X8X9XXX{.{.",
"-X4X4X<X3XmX3X4XzX#X].:X%X+XOX4XlXkXkXP.A .X5XU.U.R.@XY.P.OXxX>X%X&X~.~.T.>XjX*X@Xw H uX+X+XR.G.y.y.g.I.i.N.E.+X+XY.,XOXOX4X4XL ",
":Xx.6.3.9.7.{ ' ] %.8.z.4.#.#.u.d.t.y.W A fXOX! ! ! I I }  .9.p.] Q ! / ( ~ ^ E U % .XtX*.3.<.+.e.( / / / ^ Q I E >.u.4.9.B. .Z ",
"-XY.{ 3.z.9.6.6.6.3.9.7. .%.6.#. . .9.0.m {.>X! +.X.] ] '  .3.*.r.t.y.w.( ^ ^ X.] 0 {.rXC.] r.,.^ -.+.-./ / X.Q  .%.0.f.F.G.| S ",
"pXU. .8.9.z.N.6.6.6.9.>.] } ] ]  .} 6.6.k [.>X%.' %.6.%.%.9.9.5.w.( k.t.O.i.,.X._ k L yXJ.E +.Y Q ;.( Q -.~ o.Q @. .>.N.N.F.c S ",
"iX8.' %.z.z. .1.6.c.3.' X.] O.$.$.#.4.5.O {.xXN.a.9.N.7.0.3.9.4.#.#.O.#.5.g.p.4.9.l (.rXC.o.! ;.R ;.e.Q ! +.+.O.>.%.#.3.9.N.f H ",
"-X8. .3.6.*. .9.N.7.6.3.] X.] $.! O.6.' O _.vXB.B.7.9.m.N.m.3.6.9.6.#.%.9.6.9.7.m.f K yXN.Q / ! ;.r.R ] ] Y E X.] 1.0.9.N.V.: S ",
"9XZ.7.p.3.} 3.3.7.*.3.6.3.6.6.#.>.>.#. .t 7XbXi.6.6.9.3.7.7.3.} 3.9. .%.1.9.9.3.B.h Z 9Xp.I @.O.o.o.` ] O.] *.%.] :.9.9.N.9.d (.",
":XR.i.p. .9.7.p.9.6.%.9.m.7.*.4.p.<.t.>.t 8XcXr.O.3.6.#.3.3.7.O.3.7.4.#.6.7.0.N.A.c S rXC.#. .6. . .6.9.7.#.3. .#.9.N.V.G.N.c Z ",
"-XM < 2 h | 1 * < # l c h 5 6 4 = j z 4 9 wX5X6 4 &.h f f h h 4 * 2 , f M 8.6.%.3.h D pXC.%. . .] ] { 8.1.z h | ..3.1.c f d $ q ",
"(.Z S p b 7 7 C H H L n Z e a a n p u v e `.b q n - 8 n i 8 i n p p i P i q 7 e i e n `.r e b k w r r 9 t n n b b i @ 8 S (.H H ",
"$X0X1XqX{.9XeX9XmX'._.yXuXtX4X3XMXuXwX8X|._._.{.{._.{._.{.6XwX_.;X;X1XyX;X0X0XpXyXrX9XyXCXMXBXCXCXyXMXyX`.aXCXBXMXiXsXnXNX4X#X#X",
"9.N.S.R.E.A.c.C.9.+ _.R.` $.` 6.6.9.N.W.E.Y.%X%X#X+XE.*XY.zXn.H 4XI.A.+X=XT.S.C.S.J.Z.W.~.R.R.~.F.F.R.M N CXkXB.B.S.J.7.$.o.4.3.",
"} ] T I Y ] %.#.U q .XS.U ] ] } #.7.$.~ Q i.g.,.6.] ] U '  .X _.3Xr.T  .*. .%.6.4.j.i.a.d.i.u.a.a.a.i.x i CXU.4.9.9.9.*.` ;.Q U ",
"@.} ]  .9.5.9.,.r.+ 1XA.U X.] 3.] ,.,.~ >.j.h.>.9.x.9.N.p.9.d K <X9.7.p. .9.z.m.j.k.s.j.D.B.B.B.7.N.m.} 7 nX9.3.6.z.%.X.o.+.Y o.",
"@. . .3.f.f.i.i.5.  ;XN.` X.@.} $.w.+.4.4.6.a.9.9.9.9.B.B.F.c L nXB.i.+.#.*.f.g.k.k.a.D.k.g.g.f. .%.9.4 7 ;Xz.] 4. .@.X.O.O.o.X.",
"o. .*.t.t.f.g.g.' ; 9XZ.#.#.} $.w.~ r.t.>.9.D.p.a.a.N.9.7.a.4 L.cXB.O.O.+.#.p.g.k.H.D.!.K.g.#.#.X.' 3.| q wXU.Y i.,.+.,.9.Q Q X.",
" . .,.i.t.h.D.a.{ - .X&X^ O.r.w.<.i.5.i.#.3.9.7.9.m.5.3.*.4.1 K 5X@.] i.,.#.s.h.5.7.g.k.g.y.w.w.-.] 6.1.O wXS.] 5. .#.9.O.X.o.] ",
"9.3.5.j.j.d.p.6.' 9 |.*XQ o.r.~ 5.i.i.i.g.6.B.p.9.m.p.3.X.$.# H $X] ' 6.5.@.4.O.3.9.j.g.p.<.e.w.^ _ %.9.- 0XR.*.N.}  .t.O.#.4.,.",
" . . .5.5.5.p. .%.w _.*X+.o.w.^  .3.>.3.4.N.H.f.9.9.,.+.+.o.o K bXo.#.z.p.} } ] 6.N.f.7.#.@.Q Q Y 6.A.6.+ aXv.2.0.U X.-.T >.i.4.",
"v d + w m m > : f % K OX* 3 , O b r r b B M h f : f 3 6 = o , K n.. > < f M x x 2 M 2.4 $ g d $ 1 c z $ 9 }.9 w 9 X 0 : 7 q k k ",
"K (.|.wX}.`.(.H S n K A u H H ).8X'.8X{.{._.{./._.K D G /.G K H ^.J K J C n n q t N 9 - s p S Z n A u e G (.H H K {..X_.wXwX0X_.",
";XtXzX:XoX:X$X;X-X9XeXeXiX4X:XuXMX3X#X>Xb.|.CXeXvX>X,XjX5X,X4X<X<X4X>X:X:X|.qX.X.X'.K |..X}.-X.X|..X2XrXmXtXeXtX4X*XT.OXOX,X=Xm ",
"b.*X5.A.Y.N.0.v.x.Z.B.O.X.O.9.6.N.9.c.N.d .XcX5.,.3.Y T Y U } 7.>.6.>.>.N.c.E.R.+X2.Z cXE.J.Z.Y.S.Q.N.N.5.3.#.$.o.,.$. .N.f.] w ",
" XvXa.a.} E U Y ] 3.U } #.4.3.9.9.O.+.a.< _.,XU ] } } ] X.%.3. .} 3.%.6.#.Y ]  .} 6 p ,XT Y Y R I U X.! Y  .} Q R o. .*.#.4.9.k ",
"{.,Xu.7. .] X.Y ] *.#.9.m.7.N.9.*.#.r.5.# L.T. .} } #. .] %.x.9.9.9.N.3.} Y o.O.r.5 s <X9.,.<.#. .#.@.o.X.@.@.Q o. . . .] @.1.M ",
"_.zX4.8.7.>.Q X.#. .4.3.7.6.%.4.5. .p.i.# _.T.3.3.%.*.%.3.*.6.7.9.7.9.8.9.@.$.-.e.6 u mXG.t.t.,.7.9.%.o.Q @.,.+.] } 3.%.X.Q X.d ",
"_.kXa.9.9.3.:.#.3.6.6.3.8.z.*.} #.$.h.i..  X%X%.9.1.%.3.6.6.8.0. .*.9.z.6.+.e.( +.6 S CXI.<.t.~ 6.z. .X.] 6.3.O.3.9.6.*.X.o.] O ",
"[.,X*.9.1.3.6.9.6.6.>.3.6.F.4.5.u.,.,.>.O XXOX} c.%.}  .%.0.N.N.3._ #.6.O.^ ( / ~ 4 A mXI.r.w.Q *.*. .*.6.m.p.6.a.a.3.#.X.@.] + ",
"|.zX6.z.9.3.3.F.B.V.g.g.5.5.4.i.d.g.i.[ - 8X+X%.N.3.0.6.3.9.N.N.3.#.*.3.%.' O.I $.2 i nXg.O.+.+.#.6.7.*.p.B.F.G.D.M.A.#.] X.Y O ",
"8X*X3.V.S.4.6.G.B.6.4.4.6.<.+.h.h.g.3.5 @ 9Xc. .6.3.1.3.1.N.V.N.3.4.4.r.$.#.*.3. .3 A nX..{ | 4 j h x x j | 9.6.*.3.*.6.+.o.Y + ",
"8XB f M < , $ > > d k r t 9 k f > # @ 8 p `.0 m w % : w d d # 0 0 % * * o $ > % : : D b.e m q 9 7 e a p A i q n b b w w < $ $ - ",
"_.S Z H H K Z G /.(._.qXqXqX{.).).). X8X;X{.[. XXX.X_.[.[.).|.(.`.).J G S K K (._._.'.8XdXdXdX0X;XCXMX0X'.aXsXMXsXaX_.L.J D S n ",
"jX>X<XuXcXvXtX4X#XK nX4XzX*XzX4X,XkXT.T.J.%X&XzXbXkXjXcXbXcXF K eXtXtXxXxXzXvXkXkX&XE.Y.&XW.c.C.E.W.+XM H BXU.z.Z.T.%X=X&X<X3X>X",
"%.#.4. .*.*. .w.= D vX,.s.p.4.] ' E U ` } 9.a.a.i.i.#.3.B.3.+ .XxXp.5.5.4.9.i.+.I U U ] ] #.{  .] } #.O  XvX] _ Y @.+.Q ] @.3.7.",
"6.6.%.] Y #.p.t.5 G lX<.g.9.p.p.%. . . . .z.G.D.a. .] %.V.g.% XXvX$.p.p.9.9.7.p.3. .}  .*.%.#.]  .6.*.X `.=X5.$.r.3.O.O.#.} %.0.",
"3.%.} #.] 3.6.f.1 S bX+.5.3.*.%.]  .3.7.8.3.3.p.p. .' 3.B.4.X ).xX9.p.9.6.6.*.3.3. .]  .3.6. .>.6.9.z t {.5XV.+.w.+.+.<.#. .9.3.",
"3.c.c.*.*. .3.N., K kX .%. .] ] ]  .*.%.9.6.] %.p.6.} 6.z.%.+ _.4Xp.9.%.6.3. .%.m.3.U 6.8.6. .3.9.3.| m {.cXh.+.-./ ^ o.3.] 5.,.",
"%.0.5.#.] %.6.N.> 7X$X%.N.*.] ] 6.z.8.8.4.N.4.#.6.3.} %.p.] q {.4X9.1.%.6.N.6.3.9.%.}  .6.6.] 6.z.6.3.0 XXkX~ t.w.+.<.$.O.6.#.] ",
" . .] ]  .%.*.4.w {.3XG.9.6.] } *.6.8.3.3.5.9.7.3. .@.@.#.W @ {.zX3.9.@.3.9.6.' 3.3.3.6.9.9.#.#.] @.#.< ).=XR e./ O.5.O.@.@.X.@.",
"@.*.6.6.#.@.z.7.q 6XMXA.9.9.X.X.} 6.6. .} } 6.3.} 4.$.@.$.5 ; .X,X .m.m.6.m.4.4.%.z.B.N.z.N.9.5.#.@.] # S *Xl.) ) w.p.4.+.w.h.,.",
"%.] ] | x 1 c h 9 (.iX2.f < j 5 5  .] X.3.#.] Y ] } @.' 5 < u ;Xn.l f < : % k l c 6.6.x | } x &.x 4 j l K vXT 5 5 ....3 5 <.>.' ",
"q + + e u Z D S S /.b.i u p i y t @ O > , # < o . @ @ @ u i H (.K P S S [. X).S Z A n S F b N N n r q : K F @ N e u Z S A b b N ",
".XpXsXyXmXMXsXCXnXrXrX2XsXpX9XyX9X8X;X{.K n H /.).aXyXyXnXuX8XaXBXBXnX4XjXzX>XuXrX}.aXaXdXsXaX|.;X|.qX;X}.qXaXqXqXdXBXBXsXMX:XK ",
"xXU.Z.G.W.R.R.R.V.C.N.x.c.x.v.U.U.Y.Y.Y.M }.zX>XgX,XS.u.5.A.R.E.&X+Xc.' *.7.u.6.C.r 0XxX&X&XY.T.~.~.I.G.J.+XY.Y.hXW.~.j.I.~.z n ",
"-X#. .4.7.7.7.a.O. .o.I '  .3.7.9.} 9.%.. 1XJ.E Y T ` $.i.7.9.9.6.6.1.6.6.2.2. .3.- wX=X#.} ] X.^ R T Y ] E O.#.]  .r.k.k.!.>.e ",
"1XQ.U [ %.m.B.8.%.#.R l.+.}  .9.9.{ >.z - 9XA.E } 6.3.4.3. .} %. .} 3.3.1.3.3.1.q.w qX%X4.6.*.o.Q o.4.6.#.+.] O.#.g.d.t.k.!.:.i ",
"'.R.U #. .6.7.7.{ $.;.e.w.] *.7.} 3.z.h e 1Xz.E 5.6.@.O. .%.3.' 6.3.] [ 4.,.#.6.9.0 wX&X6.*.$.Q ] } 3. .#.E #.,.e.y.O.y.d.i.:.v ",
";X+X7.z.B.N.9.9.%.@./ / E @.O. . .c.0.x i 0XY.#. .O.#.5.6.9.9.3.c.6.@.X.X.;.} 9.G.d {.,X .{  .` } ] ]  . .=.o.Q / <.i.k.k.k.p.9 ",
"0X&Xp.B.D.j.<.,.]  .E I ] o.Q +.3.3.S.1.8 8X+Xs.9. .3.9.6. .N.N.9. .o.o.+.+.%.N.G.: {.*X' 3.3.] ] ] X.]  . .@.] #.O.g.k.g.D.6.e ",
"sX&Xp.4.p.j.5.O.] X.I X.X.] X.! E _ 9.| i sXW.i.B.N.9.6.9.7.7.6. .@.@.+.O.4.9.9.6.# |.R.I ]  .] Y X.$.] } *.} ] ] #.i.5.f.H.6.N ",
"MXgX] 3.N.5.9.6.o.o.;.! ;.w.;.R X.] $.< Z NXa.g.B.9.p.m.m.m.p.Q o.$.] ' #.*.1.6.@.$ `.A.I >.3.3.4.$.o.] $.,.4.$.X.O.i.h.f.H.3.u ",
"pXn.X g # # $ g < o o * 4 = & $ * 1 4 . H ].# % 0 0 k f : X # $ $ O % 0 d m M k M O ^.B $ < f l 1 1 4 1 3 4 1 h &. .[ E 4 x $ r ",
"`.H .X.X(._.K H H H G S H J (.L H H Z Z [.(.).{._._.K V /.K  X/._.K J L H `.A n P H K S A Z S K S p i u a D Z N n 9 7 - e p a N ",
"uXcXNXVXcXtXxXxXnX-XS 9XjX,X%XOX<XmXuXxXjXzXuXuX3X:XuXxX,XkXT.n 3X%X#X#X-XpXaXaXaXpXpX3X:X9XsX9X0X2X0X1XK _.iX2XwXwX;XpXeXuXeXnX",
"*.7.u.g.g.i.B.5.5.o Z 9Xc.] '  .3.*.' O.+.@.4.3. .*.z.*.] X.& a eX9.] #.9.R.W.@XB.p.s.r.#.8.c.J.Z.U.E.Y.q .X&XN.%XgXJ.C.x.3.4.6.",
"7.6.9.9.6.7.g.i.] # H sXc.] 6. .*.} } #.w.O.5.#.{ 6.7.m.#.Q Y t 9X7.] ] *.i.#. .O.] Y U ]  .*.3.3.3.U 6 @ ;X+X' 9. .| 3.1.6.3.*.",
"%.m.9.4.9.3.7.>.7.< Z VX4.' 6.6.6.*.4.4.w.( w.<. .3.p.9.#. .] - yX9._ 6. .#.3.6.4.7.6.6.*.3.3.m.9.9.6.' - yXJ.' 9.3.%.3.5.] ' { ",
"6.9.9.3.*.3.6.| B.< D zX~ #.9.m.6.6.g.l.e.w.~ +.9.#.4.[ %.N.1.9 qXQ.4.6. .' 3.7.N.p.N.9.6.9.0.N.m.9.7.{ q pXY.9.9.9.9.7.6.O.#.3.",
"#.4.f.9.%.m.B.9.F.2 G vXI ] 3.9.,.t.r.~ e.t.d.h.i.i.,. .%.7.' 9 .XU.*.m.m.6.3.7.8.3.6.6.] 3.6.6.m.9. . .: ;X%XB.7.N.N.f.7. .#.3.",
"*.#.[ 3.m.m.B.p.B.3 H gXI @.#.9.i.w.$.+.+.<.5.5.5.4.>.7.3.6.j r {.jX#.B.p.9.6.6.0.3. . .#.[ } %.3.9.3.} @ ;X,Xu.9.p.B.F.9.6.3.] ",
"4. .6. .7.z.6.9.9.2 Z *XQ O.7.6.f.g.5.4.4.a.p.*.*.@.@.p.N.9.7.k _.kX4.9.m.p.B.N.N.N.6.9.3.>.7.9.3.4.5. .9 _.jXf.V.F.H.~.I.z.9. .",
"#.#. .2.{ | 6.7.A.h i 4XO.] %.9.f.h.9.6.9.7.| &.3. .j | 9.N.a.d K 4Xm.9.N.6.7.x.8.| z c 1 1 c c c h 4 2 k _.%X3.S.G.g.B.B.7.1.1.",
"O % : w : - : # , + P L.> # : : , : v m d - 8 v : @ : q v 0 k 9 (.b.: w 9 k v F k t i y p n n n t e u a e K m q k : r r 9 w m v "
};
